<svg width="24" height="24" viewBox="0 0 24 24" fill="none" xmlns="http://www.w3.org/2000/svg">
<path fill-rule="evenodd" clip-rule="evenodd" d="M24 12C24 18.6274 18.6274 24 12 24C5.37258 24 0 18.6274 0 12C0 5.37258 5.37258 0 12 0C18.6274 0 24 5.37258 24 12ZM17.1421 21.3848L21.3848 17.1421L19.3669 15.1243C18.5576 17.0303 17.0303 18.5576 15.1243 19.3669L17.1421 21.3848ZM9.43294 19.5793C7.45322 18.909 5.82115 17.4848 4.87848 15.6484L3.24264 17.2843L7.48528 21.5269L9.43294 19.5793ZM4.63306 8.8757C5.44239 6.96975 6.96975 5.44239 8.8757 4.63306L7.24264 3L3 7.24264L4.63306 8.8757ZM15.6484 4.87848L17.3848 3.14214L21.6274 7.38478L19.5793 9.43294C18.909 7.45322 17.4848 5.82115 15.6484 4.87848Z" fill="black"/>
<path d="M8.99245 7.83805L12.1618 6L15.3311 7.83805L14.1659 8.51707L12.1618 7.35805L10.1576 8.51707L8.99245 7.83805ZM15.3311 10.1561L14.1659 9.47707L12.1618 10.6361L10.1576 9.47707L8.99245 10.1561V11.5141L10.9966 12.6732V14.9912L12.1618 15.6702L13.3269 14.9912V12.6732L15.3311 11.5141V10.1561ZM15.3311 13.8322V12.4741L14.1659 13.1532V14.5112L15.3311 13.8322ZM16.1583 14.3122L14.1542 15.4712V16.8293L17.3235 14.9912V11.3151L16.1583 11.9941V14.3122ZM14.9931 8.99707L16.1583 9.67609V11.0341L17.3235 10.3551V8.99707L16.1583 8.31805L14.9931 8.99707ZM10.9966 15.9629V17.321L12.1618 18L13.3269 17.321V15.9629L12.1618 16.6419L10.9966 15.9629ZM8.99245 13.8322L10.1576 14.5112V13.1532L8.99245 12.4741V13.8322ZM10.9966 8.99707L12.1618 9.67609L13.3269 8.99707L12.1618 8.31805L10.9966 8.99707ZM8.16519 9.67609L9.33037 8.99707L8.16519 8.31805L7 8.99707V10.3551L8.16519 11.0341V9.67609ZM8.16519 11.9941L7 11.3151V14.9912L10.1693 16.8293V15.4712L8.16519 14.3122V11.9941Z" fill="#F3BA2F"/>
</svg>
